<?xml version="1.0" standalone="no"?>
<!DOCTYPE svg PUBLIC "-//W3C//DTD SVG 20010904//EN"
 "http://www.w3.org/TR/2001/REC-SVG-20010904/DTD/svg10.dtd">
<svg version="1.0" xmlns="http://www.w3.org/2000/svg"
 width="279.000000pt" height="279.000000pt" viewBox="0 0 279.000000 279.000000"
 preserveAspectRatio="xMidYMid meet">
<metadata>
Created by potrace 1.11, written by Peter Selinger 2001-2013
</metadata>
<g transform="translate(0.000000,279.000000) scale(0.100000,-0.100000)"
fill="#000000" stroke="none">
<path d="M325 2756 c-136 -34 -243 -141 -278 -276 -12 -46 -14 -232 -14 -1080
0 -1107 -2 -1072 52 -1166 25 -42 91 -114 105 -114 4 0 7 102 7 228 0 125 2
239 6 254 9 35 32 41 149 43 79 2 100 5 115 20 17 18 18 58 18 871 0 823 1
853 19 873 19 21 41 26 70 15 19 -7 25 -20 196 -414 441 -1012 488 -1115 514
-1130 23 -13 29 -13 54 0 31 18 29 14 187 505 53 165 100 311 105 325 5 14 25
77 45 140 41 130 60 154 107 138 39 -14 45 -29 52 -133 4 -49 9 -108 11 -130
3 -22 7 -71 10 -110 12 -157 15 -198 20 -257 3 -35 8 -90 10 -123 3 -33 7 -82
10 -110 3 -27 7 -93 10 -145 9 -140 13 -144 154 -150 97 -4 115 -8 127 -24 8
-11 14 -27 14 -35 3 -118 41 -181 96 -160 27 9 42 31 133 191 40 70 79 132 87
139 8 7 58 11 129 12 97 1 115 3 116 16 5 93 0 1439 -5 1476 -16 104 -85 208
-176 264 -102 63 -65 61 -1186 60 -774 0 -1031 -4 -1069 -13z"/>
<path d="M643 1818 c-13 -6 -25 -20 -29 -31 -4 -11 -6 -292 -6 -623 0 -581 -1
-604 -20 -623 -17 -19 -31 -21 -123 -21 -149 0 -141 13 -142 -254 l0 -214 36
-6 c63 -10 2052 -6 2099 4 153 36 275 165 298 315 5 38 9 370 5 446 -1 13 -14
16 -83 14 -46 -1 -86 -3 -90 -3 -3 -1 -82 -133 -174 -293 -176 -305 -188 -320
-239 -297 -29 13 -31 18 -45 128 -6 47 -13 96 -15 110 -2 14 -9 62 -15 108 -6
46 -14 90 -16 97 -9 22 -41 29 -139 31 -49 1 -96 2 -102 3 -24 2 -45 50 -48
113 -5 76 -13 175 -20 243 -3 28 -7 82 -10 120 -8 113 -15 145 -35 155 -29 15
-65 12 -82 -7 -9 -10 -71 -189 -138 -398 -67 -209 -129 -388 -138 -397 -8 -10
-29 -18 -48 -18 -40 0 -8 -64 -339 692 -152 349 -263 590 -276 601 -24 19 -35
20 -66 5z"/>
</g>
</svg>
